<svg width="128" height="128" viewBox="0 0 128 128" xmlns="http://www.w3.org/2000/svg">
  <!-- Background circle -->
  <circle cx="64" cy="64" r="64" fill="#1A1A1A"/>

  <!-- DevOps infinity symbol in orange -->
  <path d="M 32 64 C 32 52 38 44 48 44 C 58 44 70 52 80 64 C 90 76 102 84 112 84 C 122 84 128 76 128 64 C 128 52 122 44 112 44 C 102 44 90 52 80 64 C 70 76 58 84 48 84 C 38 84 32 76 32 64 Z"
        fill="none"
        stroke="#FF6500"
        stroke-width="8"
        stroke-linecap="round"
        stroke-linejoin="round"
        transform="translate(-16, 0)"/>

  <!-- Second part of infinity for better definition -->
  <ellipse cx="40" cy="64" rx="16" ry="20"
           fill="none"
           stroke="#FF6500"
           stroke-width="8"/>

  <ellipse cx="88" cy="64" rx="16" ry="20"
           fill="none"
           stroke="#FF6500"
           stroke-width="8"/>
</svg>
